<svg version="1.1" id="Layer_1" xmlns:x="ns_extend;" xmlns:i="ns_ai;" xmlns:graph="ns_graphs;" xmlns="http://www.w3.org/2000/svg" xmlns:xlink="http://www.w3.org/1999/xlink" x="0px" y="0px" viewBox="0 0 695 135" style="enable-background:new 0 0 695 135;" xml:space="preserve">
 <style type="text/css">
  .st0{fill:#651FFF;}
 </style>
 <metadata>
  <sfw xmlns="ns_sfw;">
   <slices>
   </slices>
   <sliceSourceBounds bottomLeftOrigin="true" height="133.5" width="693.4" x="0.7" y="0.9">
   </sliceSourceBounds>
  </sfw>
 </metadata>
 <g>
  <path class="st0" d="M135.8,59.2l-32.8-6.4l10.8-31.7c1.9-5.5,0.6-11.1-4.3-13.9c-4.8-2.8-10.4-1-14.2,3.2L73.2,35.6L51.1,10.4
		c-3.9-4.3-9.4-6-14.2-3.2c-4.9,2.8-6.2,8.4-4.3,13.9l10.8,31.7l-32.8,6.5C4.8,60.3,0.7,64.4,0.7,70c0,5.6,4.3,9.5,9.9,10.7
		l32.9,6.4l-10.8,31.7c-1.9,5.5-0.6,11.1,4.3,13.9s10.4,1,14.2-3.2l22.1-25.2l22.1,25.2c3.9,4.3,9.4,6,14.2,3.2
		c4.9-2.8,6.2-8.4,4.3-13.9l-10.8-31.7l32.9-6.4c5.6-1.2,9.9-5.1,9.9-10.7C145.7,64.4,141.5,60.3,135.8,59.2L135.8,59.2z">
  </path>
  <path d="M235.6,118.5V74.3c0-10.9-4.3-18-14.2-18s-14.9,8.8-14.9,18.2v44.1h-24.1V36h22.7v9.3c5.2-9,14.7-11.2,21.7-11.2
		c9,0,18.7,3.3,24.1,15.4c7.4-11.2,15.2-15.5,27.4-15.5c17.2,0,32.9,8.7,32.9,39.4v45.1H287V73.9c0-10.3-2.8-17.2-12.5-17.2
		s-15.2,8.2-15.2,17.5v44.3H235.6L235.6,118.5z">
  </path>
  <path d="M407.5,74.4c0,3.6-0.3,7-1,10.3h-57.8c0.7,4.8,3,8.6,7,11.3c4,2.7,8.5,4.1,13.5,4.1c8.5,0,15.9-2.6,22.4-7.7l11.2,15.5
		c-8.6,8.2-20.2,12.4-34.9,12.4c-13.4,0-24.3-3.7-32.8-11.1c-8.5-7.4-12.8-18-12.8-31.8s4.4-24.2,13.1-31.8
		c8.7-7.6,19.2-11.4,31.5-11.4s21.8,3.5,29.3,10.6C403.7,51.8,407.5,61.7,407.5,74.4L407.5,74.4z M378.1,58
		c-3.1-2.7-7.1-4.1-11.9-4.1c-4.8,0-8.8,1.4-12,4.1c-3.2,2.7-5.1,6.7-5.5,11.9h33.9C382.7,64.7,381.2,60.7,378.1,58z">
  </path>
  <path d="M442.7,1.8v66.6l24.4-32.2h28.4v1.5l-30.2,37.2l34.9,41.8v1.8h-28.9l-28.6-36.2v36.2h-24V1.8H442.7z">
  </path>
  <path d="M541.5,34.2c13.8,0,24.2,2.6,31.3,7.8c7.1,5.2,10.6,13.4,10.6,24.8v51.8h-23v-15c-2.2,5-6.4,9-11.4,12
		c-5,3-10.8,4.5-17.2,4.5c-8.5,0-15.5-2.4-21-7.3c-5.6-4.8-8.3-11.3-8.3-19.5c0-8.6,3.1-15.2,9.3-20c6.2-4.8,14.2-7.2,24-7.2
		c8.6,0,15.8,1.4,21.5,4.3v-1.7c0-9.8-6.3-14.7-19-14.7c-7.6,0-15.9,1.6-25,4.7l-4.8-18.2C519,36.3,530,34.2,541.5,34.2L541.5,34.2z
		 M540.2,99.8c4.6,0,8.5-1.2,11.7-3.7c3.2-2.4,5.2-5.8,5.8-10.2c-5.1-2.7-10.6-4-16.5-4c-3.9,0-7,0.8-9.3,2.3
		c-2.3,1.6-3.4,3.8-3.4,6.8c0,2.8,1.1,4.9,3.3,6.4C534.1,99.1,536.9,99.8,540.2,99.8L540.2,99.8z">
  </path>
  <path d="M620,36.2v9c5.5-7.7,12.9-11,22-11c7.8,0,14.4,2.3,20.2,7.5l-10,19c-4-2.8-8.2-4.2-13.2-4.2c-10.4,0-19.2,6.7-19.2,19v42.9
		h-24V36.2H620z">
  </path>
  <path d="M694,14.1c0,18-27.4,18-27.4,0S694-3.9,694,14.1z M668.3,35.8v82.7h24V35.8H668.3z">
  </path>
 </g>
</svg>